# xmcd
#
# Track frame offsets: 
#        150
#        956
#        16439
#        36402
#        50305
#        66101
#        87688
#        99109
#
# Disc length: 1484 seconds
#
# Revision: 0
# Processed by: cddbd v1.5.2PL0 Copyright (c) Steve Scherf et al.
# Submitted via: ExactAudioCopy v1.0b3
#
DISCID=5805ca08
DTITLE=Eraserheads - Please Transpose
DYEAR=2002
DGENRE=Rock
TTITLE0=Please Transpose
TTITLE1=U Make Me
TTITLE2=Everything Is
TTITLE3=I Centric
TTITLE4=Lahat
TTITLE5=It's not
TTITLE6=Dahan Dahan
TTITLE7=Paru Parong Ningning
EXTD=
EXTT0=
EXTT1=
EXTT2=
EXTT3=
EXTT4=
EXTT5=
EXTT6=
EXTT7=
PLAYORDER=
